<?xml version="1.0" encoding="utf-8"?>
<!-- Generator: Adobe Illustrator 24.0.2, SVG Export Plug-In . SVG Version: 6.00 Build 0)  -->
<svg version="1.1" id="图层_1" xmlns="http://www.w3.org/2000/svg" xmlns:xlink="http://www.w3.org/1999/xlink" x="0px" y="0px"
	 viewBox="0 0 158.7 109.5" style="enable-background:new 0 0 158.7 109.5;" xml:space="preserve">
<style type="text/css">
	.st0{fill:#FFFFFF;}
</style>
<path class="st0" d="M27.7,93.2l-7.5,6.4l-2.9-3.5c-0.8-0.9-1.4-2.1-1.5-3.5c-0.1-0.6,0-1.4,0.1-2.1l2-23.1c0.3-2.1,0.9-3.8,2.2-5
	l5.2-4.9l5.2,5.3L27.7,93.2z M31.7,48.2l-6.4,5.7l-3-3.2C21,49.2,20,47.4,19.9,46c-0.1-0.8,0-1.7,0.1-2.8l1.8-20.8
	c0.2-2.9,0.9-4.1,3-6.3l3.8-4l5.8,6.6L31.7,48.2z M60.5,94.3l6.1,7.2l-3.1,2.7c-2.1,2-3,2.3-7,2.3H31c-3.8,0-5.4-0.5-6.9-2.3
	l-2.4-2.6l8.2-7.3L60.5,94.3z M64.5,49.5l5.6,6.3l-6.8,6H32.9l-5.7-6l6.8-6.3L64.5,49.5L64.5,49.5z M36.6,16.8l-6.1-6.4l3.1-3.2
	c1.8-2,3.1-2.6,5.7-2.6H67c2.4,0,3.9,0.6,5.4,2.6l2.9,3.1l-8,6.6H36.6z M65,63.7l6.8-6.1l3.4,3.5c1,1.1,1.6,2.4,1.7,4
	c0.1,0.9,0,1.8-0.1,2.9l-2,22.6c0,1.2-0.3,2.1-0.4,2.6c-0.2,0.9-0.8,1.7-2.3,3.1l-3.8,3.5l-5.9-6.6L65,63.7z M69,18.7l7.8-6.6
	l2.5,2.9c1,1.2,1.6,2.4,1.7,3.7c0.1,0.8,0,1.5-0.1,2.4l-1.9,22.3c-0.4,3.8-1.2,5.5-3.3,7.3l-3.7,3.4l-5.7-6L69,18.7z"/>
<path class="st0" d="M91.5,93.2L84,99.6l-2.9-3.5c-0.8-0.9-1.4-2.1-1.5-3.5c-0.1-0.6,0-1.4,0.1-2.1l2-23.1c0.3-2.1,0.9-3.8,2.2-5
	l5.2-4.9l5.2,5.3L91.5,93.2z M95.5,48.2l-6.4,5.7l-3-3.2c-1.3-1.4-2.3-3.2-2.4-4.6c-0.1-0.8,0-1.7,0.1-2.8l1.8-20.8
	c0.2-2.9,0.9-4.1,3-6.3l3.8-4l5.8,6.6L95.5,48.2z M124.3,94.3l6.1,7.2l-3.1,2.7c-2.1,2-3,2.3-7,2.3H94.8c-3.8,0-5.4-0.5-6.9-2.3
	l-2.4-2.6l8.2-7.3L124.3,94.3z M128.4,49.5l5.6,6.3l-6.8,6H96.7l-5.7-6l6.8-6.3L128.4,49.5L128.4,49.5z M100.4,16.8l-6.1-6.4
	l3.1-3.2c1.8-2,3.1-2.6,5.7-2.6h27.7c2.4,0,3.9,0.6,5.4,2.6l2.9,3.1l-8,6.6H100.4z M128.8,63.7l6.8-6.1l3.4,3.5c1,1.1,1.6,2.4,1.7,4
	c0.1,0.9,0,1.8-0.1,2.9l-2,22.6c0,1.2-0.3,2.1-0.4,2.6c-0.2,0.9-0.8,1.7-2.3,3.1l-3.8,3.5l-5.9-6.6L128.8,63.7z M132.8,18.7l7.8-6.6
	l2.5,2.9c1,1.2,1.6,2.4,1.7,3.7c0.1,0.8,0,1.5-0.1,2.4L143,43.4c-0.4,3.8-1.2,5.5-3.3,7.3l-3.7,3.4l-5.7-6L132.8,18.7z"/>
</svg>
